<svg id="visual" viewBox="0 0 3000 300" width="3000" height="300" xmlns="http://www.w3.org/2000/svg" xmlns:xlink="http://www.w3.org/1999/xlink" version="1.1"><rect x="0" y="0" width="3000" height="300" fill="#001220"></rect><path d="M0 286L21.7 281C43.3 276 86.7 266 130.2 261.3C173.7 256.7 217.3 257.3 260.8 260.3C304.3 263.3 347.7 268.7 391.2 274.3C434.7 280 478.3 286 521.8 285.8C565.3 285.7 608.7 279.3 652.2 273.5C695.7 267.7 739.3 262.3 782.8 261C826.3 259.7 869.7 262.3 913 267.2C956.3 272 999.7 279 1043.2 280.2C1086.7 281.3 1130.3 276.7 1173.8 275C1217.3 273.3 1260.7 274.7 1304.2 276.8C1347.7 279 1391.3 282 1434.8 283.7C1478.3 285.3 1521.7 285.7 1565.2 285.3C1608.7 285 1652.3 284 1695.8 285C1739.3 286 1782.7 289 1826.2 284.5C1869.7 280 1913.3 268 1956.8 264.2C2000.3 260.3 2043.7 264.7 2087 270C2130.3 275.3 2173.7 281.7 2217.2 285.3C2260.7 289 2304.3 290 2347.8 287.8C2391.3 285.7 2434.7 280.3 2478.2 281.2C2521.7 282 2565.3 289 2608.8 288.3C2652.3 287.7 2695.7 279.3 2739.2 276.3C2782.7 273.3 2826.3 275.7 2869.8 279.7C2913.3 283.7 2956.7 289.3 2978.3 292.2L3000 295L3000 0L2978.3 0C2956.7 0 2913.3 0 2869.8 0C2826.3 0 2782.7 0 2739.2 0C2695.7 0 2652.3 0 2608.8 0C2565.3 0 2521.7 0 2478.2 0C2434.7 0 2391.3 0 2347.8 0C2304.3 0 2260.7 0 2217.2 0C2173.7 0 2130.3 0 2087 0C2043.7 0 2000.3 0 1956.8 0C1913.3 0 1869.7 0 1826.2 0C1782.7 0 1739.3 0 1695.8 0C1652.3 0 1608.7 0 1565.2 0C1521.7 0 1478.3 0 1434.8 0C1391.3 0 1347.7 0 1304.2 0C1260.7 0 1217.3 0 1173.8 0C1130.3 0 1086.7 0 1043.2 0C999.7 0 956.3 0 913 0C869.7 0 826.3 0 782.8 0C739.3 0 695.7 0 652.2 0C608.7 0 565.3 0 521.8 0C478.3 0 434.7 0 391.2 0C347.7 0 304.3 0 260.8 0C217.3 0 173.7 0 130.2 0C86.7 0 43.3 0 21.7 0L0 0Z" fill="#ffffff"></path><path d="M0 243L21.7 241C43.3 239 86.7 235 130.2 234C173.7 233 217.3 235 260.8 237C304.3 239 347.7 241 391.2 246.3C434.7 251.7 478.3 260.3 521.8 262.3C565.3 264.3 608.7 259.7 652.2 255C695.7 250.3 739.3 245.7 782.8 246C826.3 246.3 869.7 251.7 913 255.3C956.3 259 999.7 261 1043.2 258.5C1086.7 256 1130.3 249 1173.8 247.8C1217.3 246.7 1260.7 251.3 1304.2 256.7C1347.7 262 1391.3 268 1434.8 269.5C1478.3 271 1521.7 268 1565.2 261C1608.7 254 1652.3 243 1695.8 240.2C1739.3 237.3 1782.7 242.7 1826.2 242.7C1869.7 242.7 1913.3 237.3 1956.8 239.2C2000.3 241 2043.7 250 2087 251C2130.3 252 2173.7 245 2217.2 241.2C2260.7 237.3 2304.3 236.7 2347.8 242.5C2391.3 248.3 2434.7 260.7 2478.2 262C2521.7 263.3 2565.3 253.7 2608.8 253.7C2652.3 253.7 2695.7 263.3 2739.2 263.5C2782.7 263.7 2826.3 254.3 2869.8 250C2913.3 245.7 2956.7 246.3 2978.3 246.7L3000 247L3000 0L2978.3 0C2956.7 0 2913.3 0 2869.8 0C2826.3 0 2782.7 0 2739.2 0C2695.7 0 2652.3 0 2608.8 0C2565.3 0 2521.7 0 2478.2 0C2434.7 0 2391.3 0 2347.8 0C2304.3 0 2260.7 0 2217.2 0C2173.7 0 2130.3 0 2087 0C2043.7 0 2000.3 0 1956.8 0C1913.3 0 1869.7 0 1826.2 0C1782.7 0 1739.3 0 1695.8 0C1652.3 0 1608.7 0 1565.2 0C1521.7 0 1478.3 0 1434.8 0C1391.3 0 1347.7 0 1304.2 0C1260.7 0 1217.3 0 1173.8 0C1130.3 0 1086.7 0 1043.2 0C999.7 0 956.3 0 913 0C869.7 0 826.3 0 782.8 0C739.3 0 695.7 0 652.2 0C608.7 0 565.3 0 521.8 0C478.3 0 434.7 0 391.2 0C347.7 0 304.3 0 260.8 0C217.3 0 173.7 0 130.2 0C86.7 0 43.3 0 21.7 0L0 0Z" fill="#e5e6e8"></path><path d="M0 250L21.7 249.2C43.3 248.3 86.7 246.7 130.2 244.8C173.7 243 217.3 241 260.8 234.7C304.3 228.3 347.7 217.7 391.2 212.8C434.7 208 478.3 209 521.8 215.3C565.3 221.7 608.7 233.3 652.2 234.2C695.7 235 739.3 225 782.8 225.7C826.3 226.3 869.7 237.7 913 237C956.3 236.3 999.7 223.7 1043.2 223.7C1086.7 223.7 1130.3 236.3 1173.8 239.3C1217.3 242.3 1260.7 235.7 1304.2 232.7C1347.7 229.7 1391.3 230.3 1434.8 232.2C1478.3 234 1521.7 237 1565.2 237.2C1608.7 237.3 1652.3 234.7 1695.8 229.5C1739.3 224.3 1782.7 216.7 1826.2 214.7C1869.7 212.7 1913.3 216.3 1956.8 216.8C2000.3 217.3 2043.7 214.7 2087 214.8C2130.3 215 2173.7 218 2217.2 223.3C2260.7 228.7 2304.3 236.3 2347.8 234.5C2391.3 232.7 2434.7 221.3 2478.2 220.5C2521.7 219.7 2565.3 229.3 2608.8 233.2C2652.3 237 2695.7 235 2739.2 231.5C2782.7 228 2826.3 223 2869.8 221.2C2913.3 219.3 2956.7 220.7 2978.3 221.3L3000 222L3000 0L2978.3 0C2956.7 0 2913.3 0 2869.8 0C2826.3 0 2782.7 0 2739.2 0C2695.7 0 2652.3 0 2608.8 0C2565.3 0 2521.7 0 2478.2 0C2434.7 0 2391.3 0 2347.8 0C2304.3 0 2260.7 0 2217.2 0C2173.7 0 2130.3 0 2087 0C2043.7 0 2000.3 0 1956.8 0C1913.3 0 1869.7 0 1826.2 0C1782.7 0 1739.3 0 1695.8 0C1652.3 0 1608.7 0 1565.2 0C1521.7 0 1478.3 0 1434.8 0C1391.3 0 1347.7 0 1304.2 0C1260.7 0 1217.3 0 1173.8 0C1130.3 0 1086.7 0 1043.2 0C999.7 0 956.3 0 913 0C869.7 0 826.3 0 782.8 0C739.3 0 695.7 0 652.2 0C608.7 0 565.3 0 521.8 0C478.3 0 434.7 0 391.2 0C347.7 0 304.3 0 260.8 0C217.3 0 173.7 0 130.2 0C86.7 0 43.3 0 21.7 0L0 0Z" fill="#ccced2"></path><path d="M0 200L21.7 201.2C43.3 202.3 86.7 204.7 130.2 207.8C173.7 211 217.3 215 260.8 215.7C304.3 216.3 347.7 213.7 391.2 214.7C434.7 215.7 478.3 220.3 521.8 216C565.3 211.7 608.7 198.3 652.2 194C695.7 189.7 739.3 194.3 782.8 195.2C826.3 196 869.7 193 913 197.2C956.3 201.3 999.7 212.7 1043.2 216.8C1086.7 221 1130.3 218 1173.8 211.5C1217.3 205 1260.7 195 1304.2 191.3C1347.7 187.7 1391.3 190.3 1434.8 194.5C1478.3 198.7 1521.7 204.3 1565.2 206.8C1608.7 209.3 1652.3 208.7 1695.8 204.5C1739.3 200.3 1782.7 192.7 1826.2 189.5C1869.7 186.3 1913.3 187.7 1956.8 191.7C2000.3 195.7 2043.7 202.3 2087 202.8C2130.3 203.3 2173.7 197.7 2217.2 196.7C2260.7 195.7 2304.3 199.3 2347.8 199.8C2391.3 200.3 2434.7 197.7 2478.2 198.8C2521.7 200 2565.3 205 2608.8 203.3C2652.3 201.7 2695.7 193.3 2739.2 195C2782.7 196.7 2826.3 208.3 2869.8 210.5C2913.3 212.7 2956.7 205.3 2978.3 201.7L3000 198L3000 0L2978.3 0C2956.7 0 2913.3 0 2869.8 0C2826.3 0 2782.7 0 2739.2 0C2695.7 0 2652.3 0 2608.8 0C2565.3 0 2521.7 0 2478.2 0C2434.7 0 2391.3 0 2347.8 0C2304.3 0 2260.7 0 2217.2 0C2173.7 0 2130.3 0 2087 0C2043.7 0 2000.3 0 1956.8 0C1913.3 0 1869.7 0 1826.2 0C1782.7 0 1739.3 0 1695.8 0C1652.3 0 1608.7 0 1565.2 0C1521.7 0 1478.3 0 1434.8 0C1391.3 0 1347.7 0 1304.2 0C1260.7 0 1217.3 0 1173.8 0C1130.3 0 1086.7 0 1043.2 0C999.7 0 956.3 0 913 0C869.7 0 826.3 0 782.8 0C739.3 0 695.7 0 652.2 0C608.7 0 565.3 0 521.8 0C478.3 0 434.7 0 391.2 0C347.7 0 304.3 0 260.8 0C217.3 0 173.7 0 130.2 0C86.7 0 43.3 0 21.7 0L0 0Z" fill="#b3b6bc"></path><path d="M0 206L21.7 202.5C43.3 199 86.7 192 130.2 188.3C173.7 184.7 217.3 184.3 260.8 186C304.3 187.7 347.7 191.3 391.2 191.8C434.7 192.3 478.3 189.7 521.8 185.5C565.3 181.3 608.7 175.7 652.2 173.8C695.7 172 739.3 174 782.8 172.8C826.3 171.7 869.7 167.3 913 171.7C956.3 176 999.7 189 1043.2 188.8C1086.7 188.7 1130.3 175.3 1173.8 173.8C1217.3 172.3 1260.7 182.7 1304.2 190C1347.7 197.3 1391.3 201.7 1434.8 198.3C1478.3 195 1521.7 184 1565.2 176.8C1608.7 169.7 1652.3 166.3 1695.8 165.7C1739.3 165 1782.7 167 1826.2 171.7C1869.7 176.3 1913.3 183.7 1956.8 188.3C2000.3 193 2043.7 195 2087 190.2C2130.3 185.3 2173.7 173.7 2217.2 171.8C2260.7 170 2304.3 178 2347.8 185.3C2391.3 192.7 2434.7 199.3 2478.2 201.5C2521.7 203.7 2565.3 201.3 2608.8 197.3C2652.3 193.3 2695.7 187.7 2739.2 181.7C2782.7 175.7 2826.3 169.3 2869.8 167.8C2913.3 166.3 2956.7 169.7 2978.3 171.3L3000 173L3000 0L2978.3 0C2956.7 0 2913.3 0 2869.8 0C2826.3 0 2782.7 0 2739.2 0C2695.7 0 2652.3 0 2608.8 0C2565.3 0 2521.7 0 2478.2 0C2434.7 0 2391.3 0 2347.8 0C2304.3 0 2260.7 0 2217.2 0C2173.7 0 2130.3 0 2087 0C2043.7 0 2000.3 0 1956.8 0C1913.3 0 1869.7 0 1826.2 0C1782.7 0 1739.3 0 1695.8 0C1652.3 0 1608.7 0 1565.2 0C1521.7 0 1478.3 0 1434.8 0C1391.3 0 1347.7 0 1304.2 0C1260.7 0 1217.3 0 1173.8 0C1130.3 0 1086.7 0 1043.2 0C999.7 0 956.3 0 913 0C869.7 0 826.3 0 782.8 0C739.3 0 695.7 0 652.2 0C608.7 0 565.3 0 521.8 0C478.3 0 434.7 0 391.2 0C347.7 0 304.3 0 260.8 0C217.3 0 173.7 0 130.2 0C86.7 0 43.3 0 21.7 0L0 0Z" fill="#9a9fa7"></path><path d="M0 144L21.7 143.7C43.3 143.3 86.7 142.7 130.2 143.2C173.7 143.7 217.3 145.3 260.8 147.3C304.3 149.3 347.7 151.7 391.2 156.2C434.7 160.7 478.3 167.3 521.8 170.2C565.3 173 608.7 172 652.2 170.8C695.7 169.7 739.3 168.3 782.8 166.3C826.3 164.3 869.7 161.7 913 162C956.3 162.3 999.7 165.7 1043.2 165.2C1086.7 164.7 1130.3 160.3 1173.8 158C1217.3 155.7 1260.7 155.3 1304.2 154.2C1347.7 153 1391.3 151 1434.8 153.5C1478.3 156 1521.7 163 1565.2 165.2C1608.7 167.3 1652.3 164.7 1695.8 164.3C1739.3 164 1782.7 166 1826.2 162C1869.7 158 1913.3 148 1956.8 150C2000.3 152 2043.7 166 2087 170.2C2130.3 174.3 2173.7 168.7 2217.2 166.3C2260.7 164 2304.3 165 2347.8 164C2391.3 163 2434.7 160 2478.2 157C2521.7 154 2565.3 151 2608.8 154.8C2652.3 158.7 2695.7 169.3 2739.2 168C2782.7 166.7 2826.3 153.3 2869.8 150.2C2913.3 147 2956.7 154 2978.3 157.5L3000 161L3000 0L2978.3 0C2956.7 0 2913.3 0 2869.8 0C2826.3 0 2782.7 0 2739.2 0C2695.7 0 2652.3 0 2608.8 0C2565.3 0 2521.7 0 2478.2 0C2434.7 0 2391.3 0 2347.8 0C2304.3 0 2260.7 0 2217.2 0C2173.7 0 2130.3 0 2087 0C2043.7 0 2000.3 0 1956.8 0C1913.3 0 1869.7 0 1826.2 0C1782.7 0 1739.3 0 1695.8 0C1652.3 0 1608.7 0 1565.2 0C1521.7 0 1478.3 0 1434.8 0C1391.3 0 1347.7 0 1304.2 0C1260.7 0 1217.3 0 1173.8 0C1130.3 0 1086.7 0 1043.2 0C999.7 0 956.3 0 913 0C869.7 0 826.3 0 782.8 0C739.3 0 695.7 0 652.2 0C608.7 0 565.3 0 521.8 0C478.3 0 434.7 0 391.2 0C347.7 0 304.3 0 260.8 0C217.3 0 173.7 0 130.2 0C86.7 0 43.3 0 21.7 0L0 0Z" fill="#838892"></path><path d="M0 135L21.7 135.5C43.3 136 86.7 137 130.2 134C173.7 131 217.3 124 260.8 127.5C304.3 131 347.7 145 391.2 145.8C434.7 146.7 478.3 134.3 521.8 128.8C565.3 123.3 608.7 124.7 652.2 128.2C695.7 131.7 739.3 137.3 782.8 138.7C826.3 140 869.7 137 913 133C956.3 129 999.7 124 1043.2 124.7C1086.7 125.3 1130.3 131.7 1173.8 135.8C1217.3 140 1260.7 142 1304.2 143C1347.7 144 1391.3 144 1434.8 144.5C1478.3 145 1521.7 146 1565.2 148.5C1608.7 151 1652.3 155 1695.8 153.7C1739.3 152.3 1782.7 145.7 1826.2 144.2C1869.7 142.7 1913.3 146.3 1956.8 145.7C2000.3 145 2043.7 140 2087 141.3C2130.3 142.7 2173.7 150.3 2217.2 148C2260.7 145.7 2304.3 133.3 2347.8 129.3C2391.3 125.3 2434.7 129.7 2478.2 134C2521.7 138.3 2565.3 142.7 2608.8 140C2652.3 137.3 2695.7 127.7 2739.2 127.8C2782.7 128 2826.3 138 2869.8 138.3C2913.3 138.7 2956.7 129.3 2978.3 124.7L3000 120L3000 0L2978.3 0C2956.7 0 2913.3 0 2869.8 0C2826.3 0 2782.7 0 2739.2 0C2695.7 0 2652.3 0 2608.8 0C2565.3 0 2521.7 0 2478.2 0C2434.7 0 2391.3 0 2347.8 0C2304.3 0 2260.7 0 2217.2 0C2173.7 0 2130.3 0 2087 0C2043.7 0 2000.3 0 1956.8 0C1913.3 0 1869.7 0 1826.2 0C1782.7 0 1739.3 0 1695.8 0C1652.3 0 1608.7 0 1565.2 0C1521.7 0 1478.3 0 1434.8 0C1391.3 0 1347.7 0 1304.2 0C1260.7 0 1217.3 0 1173.8 0C1130.3 0 1086.7 0 1043.2 0C999.7 0 956.3 0 913 0C869.7 0 826.3 0 782.8 0C739.3 0 695.7 0 652.2 0C608.7 0 565.3 0 521.8 0C478.3 0 434.7 0 391.2 0C347.7 0 304.3 0 260.8 0C217.3 0 173.7 0 130.2 0C86.7 0 43.3 0 21.7 0L0 0Z" fill="#6c727e"></path><path d="M0 115L21.7 113C43.3 111 86.7 107 130.2 107.5C173.7 108 217.3 113 260.8 117.5C304.3 122 347.7 126 391.2 122.3C434.7 118.7 478.3 107.3 521.8 102.7C565.3 98 608.7 100 652.2 105.2C695.7 110.3 739.3 118.7 782.8 118C826.3 117.3 869.7 107.7 913 103C956.3 98.3 999.7 98.7 1043.2 99.3C1086.7 100 1130.3 101 1173.8 106.7C1217.3 112.3 1260.7 122.7 1304.2 122C1347.7 121.3 1391.3 109.7 1434.8 109.3C1478.3 109 1521.7 120 1565.2 121.5C1608.7 123 1652.3 115 1695.8 110.3C1739.3 105.7 1782.7 104.3 1826.2 102.3C1869.7 100.3 1913.3 97.7 1956.8 102.8C2000.3 108 2043.7 121 2087 126.3C2130.3 131.7 2173.7 129.3 2217.2 125.7C2260.7 122 2304.3 117 2347.8 116.3C2391.3 115.7 2434.7 119.3 2478.2 116.8C2521.7 114.3 2565.3 105.7 2608.8 101C2652.3 96.3 2695.7 95.7 2739.2 96.5C2782.7 97.3 2826.3 99.7 2869.8 99.2C2913.3 98.7 2956.7 95.3 2978.3 93.7L3000 92L3000 0L2978.3 0C2956.7 0 2913.3 0 2869.8 0C2826.3 0 2782.7 0 2739.2 0C2695.7 0 2652.3 0 2608.8 0C2565.3 0 2521.7 0 2478.2 0C2434.7 0 2391.3 0 2347.8 0C2304.3 0 2260.7 0 2217.2 0C2173.7 0 2130.3 0 2087 0C2043.7 0 2000.3 0 1956.8 0C1913.3 0 1869.7 0 1826.2 0C1782.7 0 1739.3 0 1695.8 0C1652.3 0 1608.7 0 1565.2 0C1521.7 0 1478.3 0 1434.8 0C1391.3 0 1347.7 0 1304.2 0C1260.7 0 1217.3 0 1173.8 0C1130.3 0 1086.7 0 1043.2 0C999.7 0 956.3 0 913 0C869.7 0 826.3 0 782.8 0C739.3 0 695.7 0 652.2 0C608.7 0 565.3 0 521.8 0C478.3 0 434.7 0 391.2 0C347.7 0 304.3 0 260.8 0C217.3 0 173.7 0 130.2 0C86.7 0 43.3 0 21.7 0L0 0Z" fill="#555d6a"></path><path d="M0 85L21.7 84C43.3 83 86.7 81 130.2 79.2C173.7 77.3 217.3 75.7 260.8 76.3C304.3 77 347.7 80 391.2 84.3C434.7 88.7 478.3 94.3 521.8 95.5C565.3 96.7 608.7 93.3 652.2 94.7C695.7 96 739.3 102 782.8 101C826.3 100 869.7 92 913 86.7C956.3 81.3 999.7 78.7 1043.2 76.7C1086.7 74.7 1130.3 73.3 1173.8 76.2C1217.3 79 1260.7 86 1304.2 86.8C1347.7 87.7 1391.3 82.3 1434.8 79.2C1478.3 76 1521.7 75 1565.2 76.2C1608.7 77.3 1652.3 80.7 1695.8 84C1739.3 87.3 1782.7 90.7 1826.2 89.8C1869.7 89 1913.3 84 1956.8 83.3C2000.3 82.7 2043.7 86.3 2087 88.8C2130.3 91.3 2173.7 92.7 2217.2 91.7C2260.7 90.7 2304.3 87.3 2347.8 90C2391.3 92.7 2434.7 101.3 2478.2 102.3C2521.7 103.3 2565.3 96.7 2608.8 89.7C2652.3 82.7 2695.7 75.3 2739.2 77.2C2782.7 79 2826.3 90 2869.8 93C2913.3 96 2956.7 91 2978.3 88.5L3000 86L3000 0L2978.3 0C2956.7 0 2913.3 0 2869.8 0C2826.3 0 2782.7 0 2739.2 0C2695.7 0 2652.3 0 2608.8 0C2565.3 0 2521.7 0 2478.2 0C2434.7 0 2391.3 0 2347.8 0C2304.3 0 2260.7 0 2217.2 0C2173.7 0 2130.3 0 2087 0C2043.7 0 2000.3 0 1956.8 0C1913.3 0 1869.7 0 1826.2 0C1782.7 0 1739.3 0 1695.8 0C1652.3 0 1608.7 0 1565.2 0C1521.7 0 1478.3 0 1434.8 0C1391.3 0 1347.7 0 1304.2 0C1260.7 0 1217.3 0 1173.8 0C1130.3 0 1086.7 0 1043.2 0C999.7 0 956.3 0 913 0C869.7 0 826.3 0 782.8 0C739.3 0 695.7 0 652.2 0C608.7 0 565.3 0 521.8 0C478.3 0 434.7 0 391.2 0C347.7 0 304.3 0 260.8 0C217.3 0 173.7 0 130.2 0C86.7 0 43.3 0 21.7 0L0 0Z" fill="#404957"></path><path d="M0 70L21.7 70.2C43.3 70.3 86.7 70.7 130.2 66.8C173.7 63 217.3 55 260.8 57.8C304.3 60.7 347.7 74.3 391.2 79.2C434.7 84 478.3 80 521.8 74.3C565.3 68.7 608.7 61.3 652.2 63.3C695.7 65.3 739.3 76.7 782.8 82.5C826.3 88.3 869.7 88.7 913 81.8C956.3 75 999.7 61 1043.2 56C1086.7 51 1130.3 55 1173.8 55.8C1217.3 56.7 1260.7 54.3 1304.2 57.7C1347.7 61 1391.3 70 1434.8 75.3C1478.3 80.7 1521.7 82.3 1565.2 82.8C1608.7 83.3 1652.3 82.7 1695.8 77.8C1739.3 73 1782.7 64 1826.2 60.8C1869.7 57.7 1913.3 60.3 1956.8 65C2000.3 69.7 2043.7 76.3 2087 74.7C2130.3 73 2173.7 63 2217.2 58.5C2260.7 54 2304.3 55 2347.8 55.3C2391.3 55.7 2434.7 55.3 2478.2 57.7C2521.7 60 2565.3 65 2608.8 65C2652.3 65 2695.7 60 2739.2 60.2C2782.7 60.3 2826.3 65.7 2869.8 69.3C2913.3 73 2956.7 75 2978.3 76L3000 77L3000 0L2978.3 0C2956.7 0 2913.3 0 2869.8 0C2826.3 0 2782.7 0 2739.2 0C2695.7 0 2652.3 0 2608.8 0C2565.3 0 2521.7 0 2478.2 0C2434.7 0 2391.3 0 2347.8 0C2304.3 0 2260.7 0 2217.2 0C2173.7 0 2130.3 0 2087 0C2043.7 0 2000.3 0 1956.8 0C1913.3 0 1869.7 0 1826.2 0C1782.7 0 1739.3 0 1695.8 0C1652.3 0 1608.7 0 1565.2 0C1521.7 0 1478.3 0 1434.8 0C1391.3 0 1347.7 0 1304.2 0C1260.7 0 1217.3 0 1173.8 0C1130.3 0 1086.7 0 1043.2 0C999.7 0 956.3 0 913 0C869.7 0 826.3 0 782.8 0C739.3 0 695.7 0 652.2 0C608.7 0 565.3 0 521.8 0C478.3 0 434.7 0 391.2 0C347.7 0 304.3 0 260.8 0C217.3 0 173.7 0 130.2 0C86.7 0 43.3 0 21.7 0L0 0Z" fill="#2b3545"></path><path d="M0 37L21.7 40.3C43.3 43.7 86.7 50.3 130.2 49.5C173.7 48.7 217.3 40.3 260.8 38.8C304.3 37.3 347.7 42.7 391.2 41.2C434.7 39.7 478.3 31.3 521.8 28.3C565.3 25.3 608.7 27.7 652.2 28.8C695.7 30 739.3 30 782.8 33.2C826.3 36.3 869.7 42.7 913 48.3C956.3 54 999.7 59 1043.2 60.8C1086.7 62.7 1130.3 61.3 1173.8 57.7C1217.3 54 1260.7 48 1304.2 46.2C1347.7 44.3 1391.3 46.7 1434.8 44.5C1478.3 42.3 1521.7 35.7 1565.2 32.5C1608.7 29.3 1652.3 29.7 1695.8 32.2C1739.3 34.7 1782.7 39.3 1826.2 44C1869.7 48.7 1913.3 53.3 1956.8 51.5C2000.3 49.7 2043.7 41.3 2087 40.5C2130.3 39.7 2173.7 46.3 2217.2 46.8C2260.7 47.3 2304.3 41.7 2347.8 40C2391.3 38.3 2434.7 40.7 2478.2 44.3C2521.7 48 2565.3 53 2608.8 50.2C2652.3 47.3 2695.7 36.7 2739.2 32.2C2782.7 27.7 2826.3 29.3 2869.8 33C2913.3 36.7 2956.7 42.3 2978.3 45.2L3000 48L3000 0L2978.3 0C2956.7 0 2913.3 0 2869.8 0C2826.3 0 2782.7 0 2739.2 0C2695.7 0 2652.3 0 2608.8 0C2565.3 0 2521.7 0 2478.2 0C2434.7 0 2391.3 0 2347.8 0C2304.3 0 2260.7 0 2217.2 0C2173.7 0 2130.3 0 2087 0C2043.7 0 2000.3 0 1956.8 0C1913.3 0 1869.7 0 1826.2 0C1782.7 0 1739.3 0 1695.8 0C1652.3 0 1608.7 0 1565.2 0C1521.7 0 1478.3 0 1434.8 0C1391.3 0 1347.7 0 1304.2 0C1260.7 0 1217.3 0 1173.8 0C1130.3 0 1086.7 0 1043.2 0C999.7 0 956.3 0 913 0C869.7 0 826.3 0 782.8 0C739.3 0 695.7 0 652.2 0C608.7 0 565.3 0 521.8 0C478.3 0 434.7 0 391.2 0C347.7 0 304.3 0 260.8 0C217.3 0 173.7 0 130.2 0C86.7 0 43.3 0 21.7 0L0 0Z" fill="#162333"></path><path d="M0 5L21.7 9.2C43.3 13.3 86.7 21.7 130.2 23.8C173.7 26 217.3 22 260.8 24.3C304.3 26.7 347.7 35.3 391.2 36.5C434.7 37.7 478.3 31.3 521.8 26.7C565.3 22 608.7 19 652.2 19.7C695.7 20.3 739.3 24.7 782.8 23.7C826.3 22.7 869.7 16.3 913 17.2C956.3 18 999.7 26 1043.2 28.8C1086.7 31.7 1130.3 29.3 1173.8 29.8C1217.3 30.3 1260.7 33.7 1304.2 34.3C1347.7 35 1391.3 33 1434.8 28.7C1478.3 24.3 1521.7 17.7 1565.2 13C1608.7 8.3 1652.3 5.7 1695.8 6.3C1739.3 7 1782.7 11 1826.2 15C1869.7 19 1913.3 23 1956.8 22.2C2000.3 21.3 2043.7 15.7 2087 17.8C2130.3 20 2173.7 30 2217.2 29.3C2260.7 28.7 2304.3 17.3 2347.8 16C2391.3 14.7 2434.7 23.3 2478.2 24.7C2521.7 26 2565.3 20 2608.8 15.5C2652.3 11 2695.7 8 2739.2 9.3C2782.7 10.7 2826.3 16.3 2869.8 17.8C2913.3 19.3 2956.7 16.7 2978.3 15.3L3000 14L3000 0L2978.3 0C2956.7 0 2913.3 0 2869.8 0C2826.3 0 2782.7 0 2739.2 0C2695.7 0 2652.3 0 2608.8 0C2565.3 0 2521.7 0 2478.2 0C2434.7 0 2391.3 0 2347.8 0C2304.3 0 2260.7 0 2217.2 0C2173.7 0 2130.3 0 2087 0C2043.7 0 2000.3 0 1956.8 0C1913.3 0 1869.7 0 1826.2 0C1782.7 0 1739.3 0 1695.8 0C1652.3 0 1608.7 0 1565.2 0C1521.7 0 1478.3 0 1434.8 0C1391.3 0 1347.7 0 1304.2 0C1260.7 0 1217.3 0 1173.8 0C1130.3 0 1086.7 0 1043.2 0C999.7 0 956.3 0 913 0C869.7 0 826.3 0 782.8 0C739.3 0 695.7 0 652.2 0C608.7 0 565.3 0 521.8 0C478.3 0 434.7 0 391.2 0C347.7 0 304.3 0 260.8 0C217.3 0 173.7 0 130.2 0C86.7 0 43.3 0 21.7 0L0 0Z" fill="#001122"></path></svg>